<?xml version="1.0" ?><!DOCTYPE svg  PUBLIC '-//W3C//DTD SVG 1.1//EN'  'http://www.w3.org/Graphics/SVG/1.1/DTD/svg11.dtd'><svg enable-background="new 0 0 140 140" id="Layer_17" version="1.1" viewBox="0 0 140 140" xml:space="preserve" xmlns="http://www.w3.org/2000/svg" xmlns:xlink="http://www.w3.org/1999/xlink"><g><defs><filter filterUnits="userSpaceOnUse" height="97.071106" id="Adobe_OpacityMaskFilter" width="97.0710449" x="42.9289551" y="42.928894"><feColorMatrix type="matrix" values="1 0 0 0 0  0 1 0 0 0  0 0 1 0 0  0 0 0 1 0"/></filter></defs><mask height="97.071106" id="SVGID_1_" maskUnits="userSpaceOnUse" width="97.0710449" x="42.9289551" y="42.928894"><g filter="url(#Adobe_OpacityMaskFilter)"><radialGradient cx="70" cy="70" gradientTransform="matrix(0.7071068 0.7071068 -0.2721382 0.2721382 39.5522003 1.4528493)" gradientUnits="userSpaceOnUse" id="SVGID_2_" r="106.5634918"><stop offset="0.3" style="stop-color:#FFFFFF"/><stop offset="0.85" style="stop-color:#FFFFFF;stop-opacity:0"/></radialGradient><rect fill="url(#SVGID_2_)" height="140" width="140"/></g></mask><linearGradient gradientUnits="userSpaceOnUse" id="SVGID_3_" x1="69.9999847" x2="140.0000153" y1="69.9999542" y2="139.9999847"><stop offset="0" style="stop-color:#000000;stop-opacity:0.4"/><stop offset="0.8" style="stop-color:#000000;stop-opacity:0"/></linearGradient><polygon fill="url(#SVGID_3_)" mask="url(#SVGID_1_)" points="140,85.8580933    97.0710449,42.928894 42.9289551,97.0710449 85.8580933,140 140,140  "/><defs><filter filterUnits="userSpaceOnUse" height="97.071106" id="Adobe_OpacityMaskFilter_1_" width="97.0710449" x="42.9289551" y="42.928894"><feColorMatrix type="matrix" values="1 0 0 0 0  0 1 0 0 0  0 0 1 0 0  0 0 0 1 0"/></filter></defs><mask height="97.071106" id="SVGID_4_" maskUnits="userSpaceOnUse" width="97.0710449" x="42.9289551" y="42.928894"><g filter="url(#Adobe_OpacityMaskFilter_1_)"><radialGradient cx="70" cy="70" gradientTransform="matrix(0.7071068 0.7071068 -0.3889087 0.3889087 47.7261353 -6.7210855)" gradientUnits="userSpaceOnUse" id="SVGID_5_" r="79.5565872"><stop offset="0.3" style="stop-color:#FFFFFF"/><stop offset="0.85" style="stop-color:#FFFFFF;stop-opacity:0"/></radialGradient><rect fill="url(#SVGID_5_)" height="140" width="140"/></g></mask><linearGradient gradientUnits="userSpaceOnUse" id="SVGID_6_" x1="69.9999847" x2="140.0000153" y1="69.9999542" y2="139.9999847"><stop offset="0" style="stop-color:#1BB76E;stop-opacity:0.6"/><stop offset="0.5" style="stop-color:#1BB76E;stop-opacity:0"/></linearGradient><polygon fill="url(#SVGID_6_)" mask="url(#SVGID_4_)" points="140,85.8580933    97.0710449,42.928894 42.9289551,97.0710449 85.8580933,140 140,140  "/><path d="M90,100H50c-5.5228462,0-10-4.47715-10-10V50c0-5.5228462,4.4771538-10,10-10h40   c5.52285,0,10,4.4771538,10,10v40C100,95.52285,95.52285,100,90,100z" fill="#1BB76E"/><g><defs><path d="M90,41c4.9626236,0,9,4.0373802,9,9v40c0,4.9626236-4.0373764,9-9,9H50c-4.9626198,0-9-4.0373764-9-9V50     c0-4.9626198,4.0373802-9,9-9H90 M90,40H50c-5.52285,0-10,4.47715-10,10v40c0,5.52285,4.47715,10,10,10h40     c5.52285,0,10-4.47715,10-10V50C100,44.47715,95.52285,40,90,40L90,40z" id="SVGID_61_"/></defs><clipPath id="SVGID_8_"><use overflow="visible" xlink:href="#SVGID_61_"/></clipPath><linearGradient gradientUnits="userSpaceOnUse" id="SVGID_9_" x1="20" x2="120" y1="20" y2="120"><stop offset="0" style="stop-color:#FFFFFF;stop-opacity:0.8"/><stop offset="0.6" style="stop-color:#FFFFFF;stop-opacity:0"/></linearGradient><rect clip-path="url(#SVGID_8_)" fill="url(#SVGID_9_)" height="100" width="100" x="20" y="20"/></g><g><defs><path d="M90,41c4.9626236,0,9,4.0373802,9,9v40c0,4.9626236-4.0373764,9-9,9H50c-4.9626198,0-9-4.0373764-9-9V50     c0-4.9626198,4.0373802-9,9-9H90 M90,40H50c-5.52285,0-10,4.47715-10,10v40c0,5.52285,4.47715,10,10,10h40     c5.52285,0,10-4.47715,10-10V50C100,44.47715,95.52285,40,90,40L90,40z" id="SVGID_64_"/></defs><clipPath id="SVGID_11_"><use overflow="visible" xlink:href="#SVGID_64_"/></clipPath><linearGradient gradientUnits="userSpaceOnUse" id="SVGID_12_" x1="20" x2="120" y1="20" y2="120"><stop offset="0.4" style="stop-color:#000000;stop-opacity:0"/><stop offset="1" style="stop-color:#000000;stop-opacity:0.2"/></linearGradient><rect clip-path="url(#SVGID_11_)" fill="url(#SVGID_12_)" height="100" width="100" x="20" y="20"/></g><g><defs><path d="M50,99c-4.9624023,0-9-4.0375977-9-9V50c0-4.9624023,4.0375977-9,9-9h40c4.9624023,0,9,4.0375977,9,9v40     c0,4.9624023-4.0375977,9-9,9H50z" id="SVGID_67_"/></defs><clipPath id="SVGID_14_"><use overflow="visible" xlink:href="#SVGID_67_"/></clipPath><radialGradient cx="45" cy="45" gradientUnits="userSpaceOnUse" id="SVGID_15_" r="45"><stop offset="0" style="stop-color:#FFFFFF;stop-opacity:0.2"/><stop offset="1" style="stop-color:#FFFFFF;stop-opacity:0"/></radialGradient><circle clip-path="url(#SVGID_14_)" cx="45" cy="45" fill="url(#SVGID_15_)" r="45"/></g><g><defs><path d="M90,99.1499023H50c-5.0454102,0-9.1499023-4.1044922-9.1499023-9.1499023V50     c0-5.0454102,4.1044922-9.1499023,9.1499023-9.1499023h40c5.0454102,0,9.1499023,4.1044922,9.1499023,9.1499023v40     C99.1499023,95.0454102,95.0454102,99.1499023,90,99.1499023z M50,41.1499023     c-4.8798828,0-8.8500977,3.9702148-8.8500977,8.8500977v40c0,4.8798828,3.9702148,8.8500977,8.8500977,8.8500977h40     c4.8798828,0,8.8500977-3.9702148,8.8500977-8.8500977V50c0-4.8798828-3.9702148-8.8500977-8.8500977-8.8500977H50z" id="SVGID_70_"/></defs><clipPath id="SVGID_17_"><use overflow="visible" xlink:href="#SVGID_70_"/></clipPath><linearGradient gradientUnits="userSpaceOnUse" id="SVGID_18_" x1="20" x2="120" y1="20" y2="120"><stop offset="0.2" style="stop-color:#FFFFFF;stop-opacity:0.8"/><stop offset="0.7" style="stop-color:#FFFFFF;stop-opacity:0"/></linearGradient><rect clip-path="url(#SVGID_17_)" fill="url(#SVGID_18_)" height="100" width="100" x="20" y="20"/></g><path d="M73.4251709,51.4053345l-6.8853149,6.6412964l6.1638184,6.1638184   l-5.4511719,24.7730713L78.2689819,100H90c5.5228271,0,10-4.4771729,10-10V77.9801636L73.4251709,51.4053345z" opacity="0.12"/><g><path d="M70.0390015,61.642334c-1.4369507,0-2.4973755,0.4862061-3.1812134,1.4584351    c-0.6838379,0.9723511-1.0257568,2.4646606-1.0257568,4.4768677v16.4616699c0,2.012207,0.3461914,3.508728,1.0387573,4.489502    C67.5632935,89.5095825,68.6193237,90,70.0390015,90c1.4022827,0,2.44104-0.486145,3.1162109-1.4584351    s1.0128174-2.4730225,1.0128174-4.5021973v-16.461731c0-2.012207-0.3376465-3.5045166-1.0128174-4.4768677    C72.4799805,62.12854,71.4412842,61.642334,70.0390015,61.642334z" fill="#FFFFFF"/><path d="M70.0389404,59.4609985c1.3330688,0.000061,2.4627075-0.456543,3.388916-1.3696899    c0.9262085-0.9130859,1.3893433-2.0291748,1.3893433-3.3481445c0-1.302002-0.4674072-2.4180298-1.4022827-3.3480835    C72.4799805,50.4650269,71.3547363,50.000061,70.0390015,50c-1.3330688,0.000061-2.475708,0.4650879-3.4279175,1.3950806    c-0.9522095,0.9300537-1.4282837,2.0460815-1.4282837,3.3480835c0,1.3189697,0.4674072,2.4350586,1.4022827,3.3481445    C67.5199585,59.0044556,68.6712036,59.4610596,70.0389404,59.4609985z" fill="#FFFFFF"/></g><g><path d="M66.8707886,88.5288086C67.5632935,89.5095825,68.6193237,90,70.0390015,90    c1.4022827,0,2.44104-0.486145,3.1162109-1.4584351c0.3779678-0.5443039,0.6501617-1.2542114,0.8165588-2.1297379    c0,0-0.9405212,1.4631729-2.9717712,1.9944229S66.8707886,88.5288086,66.8707886,88.5288086z" fill="#1BB76E" opacity="0.4"/></g></g></svg>