<?xml version="1.0" ?><svg  fill="#fff" enable-background="new 0 0 800 800" id="Layer_1" version="1.1" viewBox="0 0 800 800" xml:space="preserve" xmlns="http://www.w3.org/2000/svg" xmlns:xlink="http://www.w3.org/1999/xlink"><g><path d="M410.7,676.3c87.5,0,147.2-24.5,163.2-67.2c17.1-44.8,5.3-72.5-3.2-91.7c-6.4-13.9-7.5-18.1-2.1-30.9   c5.3-13.9,12.8-20.3,39.5-20.3c8.5,0,17.1,1.1,27.7,1.1c10.7,1.1,21.3,1.1,32,1.1c19.2,0,77.9,0,100.3-68.3   c13.9-44.8,6.4-89.6-24.5-131.2C681.6,186.7,538.7,128,394.7,128C188.8,128,21.3,246.4,21.3,391.5   C21.3,587.7,248.5,676.3,410.7,676.3z M394.7,192c120.5,0,247.5,50.1,295.5,116.3c18.1,24.5,23.5,50.1,14.9,73.6   c-4.3,17.1-11.7,23.5-38.4,23.5c-8.5,0-17.1-1.1-26.7-1.1c-10.7-1.1-21.3-1.1-32-1.1c-18.1,0-73.6,0-98.1,59.7   c-16,38.4-4.3,64,3.2,81.1c6.4,14.9,9.6,22.4,2.1,42.7c-3.2,8.5-34.1,26.7-104.5,26.7C275.2,612.3,85.3,544,85.3,391.5   C85.3,281.6,224,192,394.7,192z"/><path d="M325.3,432c0,46.9,38.4,85.3,85.3,85.3S496,478.9,496,432s-38.4-85.3-85.3-85.3S325.3,385.1,325.3,432z M410.7,410.7   c11.7,0,21.3,9.6,21.3,21.3c0,11.7-9.6,21.3-21.3,21.3c-11.7,0-21.3-9.6-21.3-21.3C389.3,420.3,398.9,410.7,410.7,410.7z"/><path d="M247.5,484.3c-6.4-33.1-28.8-37.3-38.4-37.3c-2.1,0-4.3,0-6.4,1.1c-19.2,3.2-35.2,19.2-37.3,38.4   c-3.2,17.1,5.3,33.1,20.3,40.5c9.6,5.3,20.3,7.5,29.9,7.5c13.9,0,25.6-6.4,32-17.1C251.7,507.7,251.7,496,247.5,484.3L247.5,484.3z   "/><path d="M165.3,424.5c2.1-1.1,3.2-1.1,4.3-2.1c25.6-6.4,28.8-24.5,29.9-33.1c2.1-25.6-21.3-35.2-32-39.5l-1.1-1.1   c-5.3-2.1-10.7-3.2-16-3.2c-14.9,0-27.7,7.5-35.2,20.3c-7.5,12.8-8.5,28.8-1.1,42.7c6.4,12.8,18.1,20.3,32,20.3   C154.7,428.8,161.1,425.6,165.3,424.5z"/><path d="M215.5,338.1c10.7,0,19.2-5.3,23.5-8.5c16-6.4,25.6-21.3,25.6-37.3c0-12.8-8.5-29.9-29.9-36.3   c-19.2-5.3-40.5,3.2-51.2,20.3c-7.5,12.8-7.5,28.8,0,42.7C194.1,337.1,210.1,338.1,215.5,338.1z"/><path d="M327.5,295.5c1.1,0,2.1,0,4.3,0c1.1,0,2.1,0,3.2,0c18.1,0,34.1-12.8,37.3-30.9c3.2-19.2-9.6-37.3-27.7-43.7   c-5.3-1.1-9.6-2.1-14.9-2.1c-18.1,0-38.4,12.8-39.5,40.5c0,9.6,3.2,18.1,9.6,25.6C309.3,295.5,322.1,295.5,327.5,295.5z"/><path d="M440.5,294.4c2.1,0,4.3,0,7.5-1.1c16,0,29.9-9.6,35.2-24.5c5.3-14.9,0-32-13.9-41.6c-7.5-5.3-16-8.5-24.5-8.5   c-20.3,0-37.3,14.9-39.5,36.3c-2.1,14.9,4.3,23.5,8.5,28.8C418.1,286.9,426.7,294.4,440.5,294.4z"/><path d="M546.1,323.2c4.3,2.1,9.6,3.2,14.9,3.2c14.9,0,28.8-10.7,33.1-25.6c5.3-18.1-3.2-38.4-19.2-48c-6.4-3.2-12.8-5.3-20.3-5.3   c-12.8,0-24.5,6.4-32,17.1c-6.4,9.6-8.5,23.5-4.3,34.1C524.8,316.8,539.7,321.1,546.1,323.2z"/></g></svg>