<?xml version="1.0" ?><!DOCTYPE svg  PUBLIC '-//W3C//DTD SVG 1.1//EN'  'http://www.w3.org/Graphics/SVG/1.1/DTD/svg11.dtd'><svg fill="#ffffff" enable-background="new 0 0 91 91" height="91px" id="Layer_1" version="1.1" viewBox="0 0 91 91" width="91px" xml:space="preserve" xmlns="http://www.w3.org/2000/svg" xmlns:xlink="http://www.w3.org/1999/xlink"><g><path d="M71.201,30.106H59.342l-2.926-5.734c-0.291-0.566-0.875-0.926-1.516-0.926H36.201c-0.639,0-1.223,0.359-1.514,0.926   l-2.928,5.734H19.9c-0.939,0-1.701,0.76-1.701,1.699v37.42c0,0.939,0.762,1.699,1.701,1.699h46.482c3.594,0,6.518-2.924,6.518-6.52   v-32.6C72.9,30.866,72.141,30.106,71.201,30.106z M37.242,26.847h16.617l1.664,3.26H35.578L37.242,26.847z M69.5,64.405   c0,1.721-1.396,3.121-3.117,3.121H21.6V33.505h11.201h25.5H69.5V64.405z"/><path d="M45.551,35.71c-8.162,0-14.805,6.643-14.805,14.805c0,8.164,6.643,14.805,14.805,14.805   c8.164,0,14.805-6.641,14.805-14.805C60.355,42.353,53.715,35.71,45.551,35.71z M45.551,61.919   c-6.289,0-11.404-5.115-11.404-11.404c0-6.287,5.115-11.404,11.404-11.404s11.406,5.117,11.406,11.404   C56.957,56.804,51.84,61.919,45.551,61.919z"/><path d="M45.551,42.015c-4.686,0-8.5,3.813-8.5,8.5s3.814,8.5,8.5,8.5c4.688,0,8.5-3.813,8.5-8.5S50.238,42.015,45.551,42.015z    M45.551,55.616c-2.813,0-5.1-2.289-5.1-5.102c0-2.811,2.287-5.102,5.1-5.102s5.1,2.291,5.1,5.102   C50.65,53.327,48.363,55.616,45.551,55.616z"/><path d="M63.551,39.618c0.441,0,0.883-0.186,1.189-0.51c0.322-0.305,0.51-0.746,0.51-1.189c0-0.459-0.188-0.885-0.51-1.207   c-0.629-0.629-1.768-0.629-2.396,0c-0.324,0.322-0.494,0.766-0.494,1.207c0,0.443,0.17,0.885,0.494,1.207   C62.648,39.433,63.09,39.618,63.551,39.618z"/></g></svg>