<?xml version="1.0" ?><svg fill="#ffffff" viewBox="0 0 64 64" xmlns="http://www.w3.org/2000/svg"><g id="outline"><path d="M32,47A14,14,0,1,0,18,33,14.015,14.015,0,0,0,32,47Zm0-26A12,12,0,1,1,20,33,12.013,12.013,0,0,1,32,21Z"/><path d="M24.174,39.214l.012.009a9.971,9.971,0,0,0,15.632,0l.012-.01c.006-.007.007-.016.013-.024a10,10,0,1,0-15.683,0C24.166,39.2,24.167,39.206,24.174,39.214Zm2.241-.5a9.942,9.942,0,0,1,11.171,0,7.973,7.973,0,0,1-11.171,0ZM25.688,28.1l.655.655,1.414-1.414-.655-.655A7.953,7.953,0,0,1,31,25.069V26h2v-.931a7.953,7.953,0,0,1,3.9,1.619l-.655.655,1.414,1.414.655-.655A7.953,7.953,0,0,1,39.931,32H39v2h.931a7.932,7.932,0,0,1-1.1,3.15,12.029,12.029,0,0,0-4.446-1.912c-.059-.012-.119-.014-.178-.026l3.505-3.505a1,1,0,0,0-1.414-1.414l-4.719,4.718a11.938,11.938,0,0,0-6.4,2.141A7.936,7.936,0,0,1,24.069,34H25V32h-.931A7.953,7.953,0,0,1,25.688,28.1Z"/><path d="M58,7H6A1,1,0,0,0,5,8V58a1,1,0,0,0,1,1H58a1,1,0,0,0,1-1V8A1,1,0,0,0,58,7ZM7,9H57v6H7ZM7,57V17H57V57Z"/><rect height="2" width="2" x="13" y="11"/><rect height="2" width="2" x="53" y="11"/><rect height="2" width="2" x="17" y="11"/><rect height="2" width="2" x="9" y="11"/><path d="M50,49H14a1,1,0,0,0-1,1v4a1,1,0,0,0,1,1H50a1,1,0,0,0,1-1V50A1,1,0,0,0,50,49Zm-5,2v2H41V51ZM15,53V51H39v2Zm34,0H47V51h2Z"/></g></svg>